<svg xmlns="http://www.w3.org/2000/svg" width="1600" height="520" viewBox="0 0 1600 520">
<defs><linearGradient id="bg" x1="0" x2="1" y1="0" y2="1"><stop stop-color="#060a15"/><stop offset=".55" stop-color="#0d1832"/><stop offset="1" stop-color="#211333"/></linearGradient><linearGradient id="a" x1="0" x2="1"><stop stop-color="#5bd7ff"/><stop offset=".55" stop-color="#8b7cff"/><stop offset="1" stop-color="#ff8a42"/></linearGradient></defs>
<rect width="1600" height="520" rx="28" fill="url(#bg)"/>
<g opacity=".18" stroke="#79a8ff" fill="none"><path d="M950 85C1120 15 1290 155 1510 90"/><path d="M900 170c220-90 430 120 650 35"/><path d="M920 280c230-95 420 120 630 35"/></g>
<text x="80" y="108" fill="#91a7ca" font-family="Inter,Segoe UI,Arial,sans-serif" font-size="24" font-weight="800">FAOUZI AI LAB • OPEN SOURCE</text>
<text x="80" y="235" fill="#fff" font-family="Inter,Segoe UI,Arial,sans-serif" font-size="88" font-weight="900">Prompt</text><text x="375" y="235" fill="url(#a)" font-family="Inter,Segoe UI,Arial,sans-serif" font-size="88" font-weight="900">BOM</text>
<text x="82" y="305" fill="#c7d5ee" font-family="Inter,Segoe UI,Arial,sans-serif" font-size="32" font-weight="600">SBOM for everything your AI was told.</text>
<g transform="translate(82 365)" font-family="Inter,Segoe UI,Arial,sans-serif" font-size="20" font-weight="800" fill="#fff"><rect width="190" height="56" rx="28" fill="#10213c" stroke="#5bd7ff"/><text x="95" y="36" text-anchor="middle">LOCAL-FIRST</text><rect x="210" width="210" height="56" rx="28" fill="#10213c" stroke="#8b7cff"/><text x="315" y="36" text-anchor="middle">ZERO API KEYS</text><rect x="440" width="220" height="56" rx="28" fill="#10213c" stroke="#ff8a42"/><text x="550" y="36" text-anchor="middle">DETERMINISTIC</text></g>
<g transform="translate(1030 92)"><rect width="450" height="336" rx="28" fill="#09152b" stroke="#315381" stroke-width="2"/><text x="38" y="58" fill="#5bd7ff" font-family="Inter,Segoe UI,Arial,sans-serif" font-size="23" font-weight="800">BEHAVIORAL SUPPLY CHAIN</text><g font-family="Inter,Segoe UI,Arial,sans-serif" font-size="23" fill="#dce7ff"><text x="45" y="115">AGENTS.md</text><text x="45" y="160">CLAUDE.md</text><text x="45" y="205">Cursor / Copilot / Gemini</text><text x="45" y="250">Skills • MCP • Memory</text><text x="45" y="295">→ promptbom.lock</text></g></g>
</svg>
