<svg xmlns="http://www.w3.org/2000/svg" width="1800" height="620" viewBox="0 0 1800 620">
<defs>
  <linearGradient id="bg" x1="0" y1="0" x2="1" y2="1">
    <stop offset="0" stop-color="#050814"/>
    <stop offset=".48" stop-color="#0b1630"/>
    <stop offset="1" stop-color="#17102d"/>
  </linearGradient>
  <linearGradient id="brand" x1="0" y1="0" x2="1" y2="0">
    <stop offset="0" stop-color="#5bd7ff"/>
    <stop offset=".55" stop-color="#8b7cff"/>
    <stop offset="1" stop-color="#ff8a42"/>
  </linearGradient>
  <radialGradient id="blue"><stop offset="0" stop-color="#2d9cff" stop-opacity=".45"/><stop offset="1" stop-color="#2d9cff" stop-opacity="0"/></radialGradient>
  <radialGradient id="orange"><stop offset="0" stop-color="#ff7a3d" stop-opacity=".35"/><stop offset="1" stop-color="#ff7a3d" stop-opacity="0"/></radialGradient>
</defs>
<rect width="1800" height="620" rx="34" fill="url(#bg)"/>
<circle cx="1460" cy="120" r="420" fill="url(#blue)"/>
<circle cx="1480" cy="560" r="360" fill="url(#orange)"/>
<g opacity=".16" stroke="#84b8ff" fill="none">
  <path d="M960 100 C1170 20 1390 200 1710 110"/>
  <path d="M930 180 C1190 90 1410 320 1710 220"/>
  <path d="M950 280 C1200 190 1390 430 1700 320"/>
  <path d="M930 390 C1190 290 1410 520 1700 430"/>
</g>
<g transform="translate(84 72)">
  <rect width="330" height="52" rx="26" fill="#101d38" stroke="#355d99"/>
  <circle cx="28" cy="26" r="8" fill="#5bd7ff"/>
  <circle cx="54" cy="26" r="8" fill="#8b7cff"/>
  <circle cx="80" cy="26" r="8" fill="#ff8a42"/>
  <text x="105" y="34" font-family="Inter,Segoe UI,Arial,sans-serif" font-size="22" font-weight="800" fill="#dfeaff">FAOUZI • OPEN SOURCE</text>
</g>
<text x="84" y="222" font-family="Inter,Segoe UI,Arial,sans-serif" font-size="76" font-weight="900" fill="#fff">N8N Market AI</text>
<text x="84" y="310" font-family="Inter,Segoe UI,Arial,sans-serif" font-size="64" font-weight="900" fill="url(#brand)">Automation + AI Agent Lab</text>
<text x="86" y="374" font-family="Inter,Segoe UI,Arial,sans-serif" font-size="29" font-weight="500" fill="#b9cbea">Workflows n8n • AI agents • automation • developer tools • open-source experiments</text>
<g transform="translate(86 438)">
  <rect width="220" height="62" rx="31" fill="#101e39" stroke="#5bd7ff"/>
  <text x="110" y="40" text-anchor="middle" font-family="Inter,Segoe UI,Arial,sans-serif" font-size="23" font-weight="800" fill="#fff">24 WORKFLOWS</text>
  <rect x="240" width="230" height="62" rx="31" fill="#101e39" stroke="#8b7cff"/>
  <text x="355" y="40" text-anchor="middle" font-family="Inter,Segoe UI,Arial,sans-serif" font-size="23" font-weight="800" fill="#fff">FAOUZI AI LAB</text>
  <rect x="490" width="260" height="62" rx="31" fill="#101e39" stroke="#ff8a42"/>
  <text x="620" y="40" text-anchor="middle" font-family="Inter,Segoe UI,Arial,sans-serif" font-size="23" font-weight="800" fill="#fff">PUBLIC PROJECTS</text>
</g>
<g transform="translate(1120 108)">
  <rect width="500" height="372" rx="30" fill="#09152c" stroke="#2c4e80" stroke-width="2"/>
  <text x="40" y="64" font-family="Inter,Segoe UI,Arial,sans-serif" font-size="24" font-weight="800" fill="#5bd7ff">FEATURED</text>
  <text x="40" y="112" font-family="Inter,Segoe UI,Arial,sans-serif" font-size="36" font-weight="900" fill="#fff">FAOUZI AI LAB</text>
  <text x="40" y="154" font-family="Inter,Segoe UI,Arial,sans-serif" font-size="21" fill="#aebfdd">Novel AI-agent infrastructure</text>
  <g transform="translate(40 195)" font-family="Inter,Segoe UI,Arial,sans-serif" font-size="20" fill="#dbe7ff">
    <circle cx="8" cy="-7" r="5" fill="#5bd7ff"/><text x="26">PromptBOM</text>
    <circle cx="8" cy="40" r="5" fill="#8b7cff"/><text x="26" y="47">Intent Mutation Testing</text>
    <circle cx="8" cy="87" r="5" fill="#ff8a42"/><text x="26" y="94">Agent Effect Manifest</text>
    <circle cx="8" cy="134" r="5" fill="#4de0b3"/><text x="26" y="141">Behavioral SemVer</text>
  </g>
</g>
<text x="84" y="568" font-family="Inter,Segoe UI,Arial,sans-serif" font-size="20" font-weight="700" fill="#7188ad">BUILD • DOCUMENT • SHARE • IMPROVE</text>
</svg>